<?xml version="1.0" encoding="UTF-8" standalone="no"?>
<!DOCTYPE svg PUBLIC "-//W3C//DTD SVG 1.1//EN"
 "http://www.w3.org/Graphics/SVG/1.1/DTD/svg11.dtd">
<!-- Generated by graphviz version 2.40.1 (20161225.0304)
 -->
<!-- Title: dependencies Pages: 1 -->
<svg width="3759pt" height="349pt"
 viewBox="0.00 0.00 3759.00 349.00" xmlns="http://www.w3.org/2000/svg" xmlns:xlink="http://www.w3.org/1999/xlink">
<g id="graph0" class="graph" transform="scale(1 1) rotate(0) translate(4 345)">
<title>dependencies</title>
<polygon fill="#ffffff" stroke="transparent" points="-4,4 -4,-345 3755,-345 3755,4 -4,4"/>
<text text-anchor="start" x="1854.5091" y="-42.4" font-family="sans-serif" font-weight="bold" font-size="14.00" fill="#000000">Legend</text>
<polygon fill="#ffffb3" stroke="transparent" points="1641.5,-10 1641.5,-30 1661.5,-30 1661.5,-10 1641.5,-10"/>
<text text-anchor="start" x="1665.129" y="-15.4" font-family="sans-serif" font-size="14.00" fill="#000000"> &#160;Declarations</text>
<polygon fill="#8dd3c7" stroke="transparent" points="1754.5,-10 1754.5,-30 1774.5,-30 1774.5,-10 1754.5,-10"/>
<text text-anchor="start" x="1778.2251" y="-15.4" font-family="sans-serif" font-size="14.00" fill="#000000"> &#160;Module</text>
<polygon fill="#80b1d3" stroke="transparent" points="1840.5,-10 1840.5,-30 1860.5,-30 1860.5,-10 1840.5,-10"/>
<text text-anchor="start" x="1864.2812" y="-15.4" font-family="sans-serif" font-size="14.00" fill="#000000"> &#160;Bootstrap</text>
<polygon fill="#fdb462" stroke="transparent" points="1937.5,-10 1937.5,-30 1957.5,-30 1957.5,-10 1937.5,-10"/>
<text text-anchor="start" x="1961.1732" y="-15.4" font-family="sans-serif" font-size="14.00" fill="#000000"> &#160;Providers</text>
<polygon fill="#fb8072" stroke="transparent" points="2033.5,-10 2033.5,-30 2053.5,-30 2053.5,-10 2033.5,-10"/>
<text text-anchor="start" x="2057.2258" y="-15.4" font-family="sans-serif" font-size="14.00" fill="#000000"> &#160;Exports</text>
<g id="clust1" class="cluster">
<title>cluster_FwModule</title>
<polygon fill="none" stroke="#000000" stroke-dasharray="1,5" points="8,-70 8,-333 3743,-333 3743,-70 8,-70"/>
</g>
<g id="clust2" class="cluster">
<title>cluster_FwModule_declarations</title>
<polygon fill="none" stroke="#000000" points="1728,-143 1728,-195 3735,-195 3735,-143 1728,-143"/>
</g>
<g id="clust3" class="cluster">
<title>cluster_FwModule_EqualValidator_providers</title>
<polygon fill="none" stroke="#000000" points="3269,-78 3269,-130 3735,-130 3735,-78 3269,-78"/>
</g>
<g id="clust17" class="cluster">
<title>cluster_FwModule_imports</title>
<polygon fill="none" stroke="#000000" points="694,-143 694,-195 1720,-195 1720,-143 694,-143"/>
</g>
<g id="clust18" class="cluster">
<title>cluster_FwModule_exports</title>
<polygon fill="none" stroke="#000000" points="1551,-273 1551,-325 2204,-325 2204,-273 1551,-273"/>
</g>
<g id="clust20" class="cluster">
<title>cluster_FwModule_providers</title>
<polygon fill="none" stroke="#000000" points="16,-143 16,-195 686,-195 686,-143 16,-143"/>
</g>
<!-- EqualValidator -->
<g id="node1" class="node">
<title>EqualValidator</title>
<polygon fill="#ffffb3" stroke="#000000" points="3726.5271,-187 3625.4729,-187 3625.4729,-151 3726.5271,-151 3726.5271,-187"/>
<text text-anchor="middle" x="3676" y="-164.8" font-family="Times,serif" font-size="14.00" fill="#000000">EqualValidator</text>
</g>
<!-- FwModule -->
<g id="node15" class="node">
<title>FwModule</title>
<polygon fill="#8dd3c7" stroke="#000000" points="1904.9403,-252 1901.9403,-256 1880.9403,-256 1877.9403,-252 1827.0597,-252 1827.0597,-216 1904.9403,-216 1904.9403,-252"/>
<text text-anchor="middle" x="1866" y="-229.8" font-family="Times,serif" font-size="14.00" fill="#000000">FwModule</text>
</g>
<!-- EqualValidator&#45;&gt;FwModule -->
<g id="edge1" class="edge">
<title>EqualValidator&#45;&gt;FwModule</title>
<path fill="none" stroke="#000000" d="M3676,-187.0908C3676,-210.1328 3676,-247 3676,-247 3676,-247 1915.0637,-247 1915.0637,-247"/>
<polygon fill="#000000" stroke="#000000" points="1915.0637,-243.5001 1905.0637,-247 1915.0636,-250.5001 1915.0637,-243.5001"/>
</g>
<!-- FrameworkBodyComponent -->
<g id="node2" class="node">
<title>FrameworkBodyComponent</title>
<polygon fill="#ffffb3" stroke="#000000" points="3607.1993,-187 3430.8007,-187 3430.8007,-151 3607.1993,-151 3607.1993,-187"/>
<text text-anchor="middle" x="3519" y="-164.8" font-family="Times,serif" font-size="14.00" fill="#000000">FrameworkBodyComponent</text>
</g>
<!-- FrameworkBodyComponent&#45;&gt;FwModule -->
<g id="edge3" class="edge">
<title>FrameworkBodyComponent&#45;&gt;FwModule</title>
<path fill="none" stroke="#000000" d="M3519,-187.0109C3519,-209.4852 3519,-245 3519,-245 3519,-245 1914.8277,-245 1914.8277,-245"/>
<polygon fill="#000000" stroke="#000000" points="1914.8278,-241.5001 1904.8277,-245 1914.8277,-248.5001 1914.8278,-241.5001"/>
</g>
<!-- ContentComponent -->
<g id="node3" class="node">
<title>ContentComponent</title>
<polygon fill="#ffffb3" stroke="#000000" points="3412.6652,-187 3287.3348,-187 3287.3348,-151 3412.6652,-151 3412.6652,-187"/>
<text text-anchor="middle" x="3350" y="-164.8" font-family="Times,serif" font-size="14.00" fill="#000000">ContentComponent</text>
</g>
<!-- ContentComponent&#45;&gt;FwModule -->
<g id="edge4" class="edge">
<title>ContentComponent&#45;&gt;FwModule</title>
<path fill="none" stroke="#000000" d="M3350,-187.0449C3350,-208.6623 3350,-242 3350,-242 3350,-242 1914.9306,-242 1914.9306,-242"/>
<polygon fill="#000000" stroke="#000000" points="1914.9306,-238.5001 1904.9306,-242 1914.9306,-245.5001 1914.9306,-238.5001"/>
</g>
<!-- TitleBarComponent -->
<g id="node4" class="node">
<title>TitleBarComponent</title>
<polygon fill="#ffffb3" stroke="#000000" points="3268.9832,-187 3141.0168,-187 3141.0168,-151 3268.9832,-151 3268.9832,-187"/>
<text text-anchor="middle" x="3205" y="-164.8" font-family="Times,serif" font-size="14.00" fill="#000000">TitleBarComponent</text>
</g>
<!-- TitleBarComponent&#45;&gt;FwModule -->
<g id="edge5" class="edge">
<title>TitleBarComponent&#45;&gt;FwModule</title>
<path fill="none" stroke="#000000" d="M3205,-187.2843C3205,-208.3211 3205,-240 3205,-240 3205,-240 1914.9883,-240 1914.9883,-240"/>
<polygon fill="#000000" stroke="#000000" points="1914.9884,-236.5001 1904.9883,-240 1914.9883,-243.5001 1914.9884,-236.5001"/>
</g>
<!-- TopBarComponent -->
<g id="node5" class="node">
<title>TopBarComponent</title>
<polygon fill="#ffffb3" stroke="#000000" points="3123.0968,-187 2998.9032,-187 2998.9032,-151 3123.0968,-151 3123.0968,-187"/>
<text text-anchor="middle" x="3061" y="-164.8" font-family="Times,serif" font-size="14.00" fill="#000000">TopBarComponent</text>
</g>
<!-- TopBarComponent&#45;&gt;FwModule -->
<g id="edge6" class="edge">
<title>TopBarComponent&#45;&gt;FwModule</title>
<path fill="none" stroke="#000000" d="M3061,-187.2228C3061,-207.3652 3061,-237 3061,-237 3061,-237 1914.7427,-237 1914.7427,-237"/>
<polygon fill="#000000" stroke="#000000" points="1914.7427,-233.5001 1904.7427,-237 1914.7427,-240.5001 1914.7427,-233.5001"/>
</g>
<!-- StatusbarComponent -->
<g id="node6" class="node">
<title>StatusbarComponent</title>
<polygon fill="#ffffb3" stroke="#000000" points="2980.9313,-187 2847.0687,-187 2847.0687,-151 2980.9313,-151 2980.9313,-187"/>
<text text-anchor="middle" x="2914" y="-164.8" font-family="Times,serif" font-size="14.00" fill="#000000">StatusbarComponent</text>
</g>
<!-- StatusbarComponent&#45;&gt;FwModule -->
<g id="edge7" class="edge">
<title>StatusbarComponent&#45;&gt;FwModule</title>
<path fill="none" stroke="#000000" d="M2914,-187.1061C2914,-206.3391 2914,-234 2914,-234 2914,-234 1914.8554,-234 1914.8554,-234"/>
<polygon fill="#000000" stroke="#000000" points="1914.8554,-230.5001 1904.8554,-234 1914.8553,-237.5001 1914.8554,-230.5001"/>
</g>
<!-- ScreenLarge -->
<g id="node7" class="node">
<title>ScreenLarge</title>
<polygon fill="#ffffb3" stroke="#000000" points="2829.2298,-187 2742.7702,-187 2742.7702,-151 2829.2298,-151 2829.2298,-187"/>
<text text-anchor="middle" x="2786" y="-164.8" font-family="Times,serif" font-size="14.00" fill="#000000">ScreenLarge</text>
</g>
<!-- ScreenLarge&#45;&gt;FwModule -->
<g id="edge8" class="edge">
<title>ScreenLarge&#45;&gt;FwModule</title>
<path fill="none" stroke="#000000" d="M2786,-187.2222C2786,-205.8285 2786,-232 2786,-232 2786,-232 1914.9436,-232 1914.9436,-232"/>
<polygon fill="#000000" stroke="#000000" points="1914.9437,-228.5001 1904.9436,-232 1914.9436,-235.5001 1914.9437,-228.5001"/>
</g>
<!-- ScreenBelowLarge -->
<g id="node8" class="node">
<title>ScreenBelowLarge</title>
<polygon fill="#ffffb3" stroke="#000000" points="2724.7781,-187 2601.2219,-187 2601.2219,-151 2724.7781,-151 2724.7781,-187"/>
<text text-anchor="middle" x="2663" y="-164.8" font-family="Times,serif" font-size="14.00" fill="#000000">ScreenBelowLarge</text>
</g>
<!-- ScreenBelowLarge&#45;&gt;FwModule -->
<g id="edge9" class="edge">
<title>ScreenBelowLarge&#45;&gt;FwModule</title>
<path fill="none" stroke="#000000" d="M2663,-187.002C2663,-204.6754 2663,-229 2663,-229 2663,-229 1914.9805,-229 1914.9805,-229"/>
<polygon fill="#000000" stroke="#000000" points="1914.9805,-225.5001 1904.9805,-229 1914.9805,-232.5001 1914.9805,-225.5001"/>
</g>
<!-- MenuComponent -->
<g id="node9" class="node">
<title>MenuComponent</title>
<polygon fill="#ffffb3" stroke="#000000" points="2582.9916,-187 2469.0084,-187 2469.0084,-151 2582.9916,-151 2582.9916,-187"/>
<text text-anchor="middle" x="2526" y="-164.8" font-family="Times,serif" font-size="14.00" fill="#000000">MenuComponent</text>
</g>
<!-- MenuComponent&#45;&gt;FwModule -->
<g id="edge10" class="edge">
<title>MenuComponent&#45;&gt;FwModule</title>
<path fill="none" stroke="#000000" d="M2526,-187.0336C2526,-204.0597 2526,-227 2526,-227 2526,-227 1914.822,-227 1914.822,-227"/>
<polygon fill="#000000" stroke="#000000" points="1914.822,-223.5001 1904.822,-227 1914.8219,-230.5001 1914.822,-223.5001"/>
</g>
<!-- MenuItemComponent -->
<g id="node10" class="node">
<title>MenuItemComponent</title>
<polygon fill="#ffffb3" stroke="#000000" points="2450.6484,-187 2311.3516,-187 2311.3516,-151 2450.6484,-151 2450.6484,-187"/>
<text text-anchor="middle" x="2381" y="-164.8" font-family="Times,serif" font-size="14.00" fill="#000000">MenuItemComponent</text>
</g>
<!-- MenuItemComponent&#45;&gt;FwModule -->
<g id="edge11" class="edge">
<title>MenuItemComponent&#45;&gt;FwModule</title>
<path fill="none" stroke="#000000" d="M2381,-187.0091C2381,-203.0494 2381,-224 2381,-224 2381,-224 1915.1314,-224 1915.1314,-224"/>
<polygon fill="#000000" stroke="#000000" points="1915.1314,-220.5001 1905.1314,-224 1915.1314,-227.5001 1915.1314,-220.5001"/>
</g>
<!-- DialogComponent -->
<g id="node11" class="node">
<title>DialogComponent</title>
<polygon fill="#ffffb3" stroke="#000000" points="2292.9356,-187 2173.0644,-187 2173.0644,-151 2292.9356,-151 2292.9356,-187"/>
<text text-anchor="middle" x="2233" y="-164.8" font-family="Times,serif" font-size="14.00" fill="#000000">DialogComponent</text>
</g>
<!-- DialogComponent&#45;&gt;FwModule -->
<g id="edge12" class="edge">
<title>DialogComponent&#45;&gt;FwModule</title>
<path fill="none" stroke="#000000" d="M2184.5661,-187.2396C2184.5661,-202.5706 2184.5661,-222 2184.5661,-222 2184.5661,-222 1914.744,-222 1914.744,-222"/>
<polygon fill="#000000" stroke="#000000" points="1914.744,-218.5001 1904.744,-222 1914.7439,-225.5001 1914.744,-218.5001"/>
</g>
<!-- SignInComponent -->
<g id="node12" class="node">
<title>SignInComponent</title>
<polygon fill="#ffffb3" stroke="#000000" points="2155.1667,-187 2036.8333,-187 2036.8333,-151 2155.1667,-151 2155.1667,-187"/>
<text text-anchor="middle" x="2096" y="-164.8" font-family="Times,serif" font-size="14.00" fill="#000000">SignInComponent</text>
</g>
<!-- SignInComponent&#45;&gt;FwModule -->
<g id="edge13" class="edge">
<title>SignInComponent&#45;&gt;FwModule</title>
<path fill="none" stroke="#000000" d="M2096,-187.0511C2096,-201.373 2096,-219 2096,-219 2096,-219 1914.7563,-219 1914.7563,-219"/>
<polygon fill="#000000" stroke="#000000" points="1914.7563,-215.5001 1904.7563,-219 1914.7562,-222.5001 1914.7563,-215.5001"/>
</g>
<!-- RegisterUserComponent -->
<g id="node13" class="node">
<title>RegisterUserComponent</title>
<polygon fill="#ffffb3" stroke="#000000" points="2018.4115,-187 1863.5885,-187 1863.5885,-151 2018.4115,-151 2018.4115,-187"/>
<text text-anchor="middle" x="1941" y="-164.8" font-family="Times,serif" font-size="14.00" fill="#000000">RegisterUserComponent</text>
</g>
<!-- RegisterUserComponent&#45;&gt;FwModule -->
<g id="edge14" class="edge">
<title>RegisterUserComponent&#45;&gt;FwModule</title>
<path fill="none" stroke="#000000" d="M1884.257,-187.1061C1884.257,-187.1061 1884.257,-205.991 1884.257,-205.991"/>
<polygon fill="#000000" stroke="#000000" points="1880.7571,-205.9909 1884.257,-215.991 1887.7571,-205.991 1880.7571,-205.9909"/>
</g>
<!-- AlertComponent -->
<g id="node14" class="node">
<title>AlertComponent</title>
<polygon fill="#ffffb3" stroke="#000000" points="1846.0954,-187 1735.9046,-187 1735.9046,-151 1846.0954,-151 1846.0954,-187"/>
<text text-anchor="middle" x="1791" y="-164.8" font-family="Times,serif" font-size="14.00" fill="#000000">AlertComponent</text>
</g>
<!-- AlertComponent&#45;&gt;FwModule -->
<g id="edge15" class="edge">
<title>AlertComponent&#45;&gt;FwModule</title>
<path fill="none" stroke="#000000" d="M1836.6641,-187.1061C1836.6641,-187.1061 1836.6641,-205.991 1836.6641,-205.991"/>
<polygon fill="#000000" stroke="#000000" points="1833.1642,-205.9909 1836.6641,-215.991 1840.1642,-205.991 1833.1642,-205.9909"/>
</g>
<!-- FrameworkBodyComponent  -->
<g id="node25" class="node">
<title>FrameworkBodyComponent </title>
<polygon fill="#fb8072" stroke="#000000" points="2195.6995,-317 2016.3005,-317 2016.3005,-281 2195.6995,-281 2195.6995,-317"/>
<text text-anchor="middle" x="2106" y="-294.8" font-family="Times,serif" font-size="14.00" fill="#000000">FrameworkBodyComponent </text>
</g>
<!-- FwModule&#45;&gt;FrameworkBodyComponent  -->
<g id="edge24" class="edge">
<title>FwModule&#45;&gt;FrameworkBodyComponent </title>
<path fill="none" stroke="#000000" stroke-dasharray="5,2" d="M1905.0792,-250C1952.8567,-250 2027.4362,-250 2027.4362,-250 2027.4362,-250 2027.4362,-270.7542 2027.4362,-270.7542"/>
<polygon fill="#000000" stroke="#000000" points="2023.9363,-270.7542 2027.4362,-280.7542 2030.9363,-270.7542 2023.9363,-270.7542"/>
</g>
<!-- DialogComponent  -->
<g id="node26" class="node">
<title>DialogComponent </title>
<polygon fill="#fb8072" stroke="#000000" points="1998.4348,-317 1875.5652,-317 1875.5652,-281 1998.4348,-281 1998.4348,-317"/>
<text text-anchor="middle" x="1937" y="-294.8" font-family="Times,serif" font-size="14.00" fill="#000000">DialogComponent </text>
</g>
<!-- FwModule&#45;&gt;DialogComponent  -->
<g id="edge25" class="edge">
<title>FwModule&#45;&gt;DialogComponent </title>
<path fill="none" stroke="#000000" stroke-dasharray="5,2" d="M1890.1261,-252.1061C1890.1261,-252.1061 1890.1261,-270.991 1890.1261,-270.991"/>
<polygon fill="#000000" stroke="#000000" points="1886.6261,-270.9909 1890.1261,-280.991 1893.6261,-270.991 1886.6261,-270.9909"/>
</g>
<!-- SignInComponent  -->
<g id="node27" class="node">
<title>SignInComponent </title>
<polygon fill="#fb8072" stroke="#000000" points="1857.1663,-317 1734.8337,-317 1734.8337,-281 1857.1663,-281 1857.1663,-317"/>
<text text-anchor="middle" x="1796" y="-294.8" font-family="Times,serif" font-size="14.00" fill="#000000">SignInComponent </text>
</g>
<!-- FwModule&#45;&gt;SignInComponent  -->
<g id="edge26" class="edge">
<title>FwModule&#45;&gt;SignInComponent </title>
<path fill="none" stroke="#000000" stroke-dasharray="5,2" d="M1842.1818,-252.1061C1842.1818,-252.1061 1842.1818,-270.991 1842.1818,-270.991"/>
<polygon fill="#000000" stroke="#000000" points="1838.6819,-270.9909 1842.1818,-280.991 1845.6819,-270.991 1838.6819,-270.9909"/>
</g>
<!-- RegisterUserComponent  -->
<g id="node28" class="node">
<title>RegisterUserComponent </title>
<polygon fill="#fb8072" stroke="#000000" points="1716.911,-317 1559.089,-317 1559.089,-281 1716.911,-281 1716.911,-317"/>
<text text-anchor="middle" x="1638" y="-294.8" font-family="Times,serif" font-size="14.00" fill="#000000">RegisterUserComponent </text>
</g>
<!-- FwModule&#45;&gt;RegisterUserComponent  -->
<g id="edge27" class="edge">
<title>FwModule&#45;&gt;RegisterUserComponent </title>
<path fill="none" stroke="#000000" stroke-dasharray="5,2" d="M1827.2192,-250C1761.9954,-250 1637.3887,-250 1637.3887,-250 1637.3887,-250 1637.3887,-270.7542 1637.3887,-270.7542"/>
<polygon fill="#000000" stroke="#000000" points="1633.8888,-270.7542 1637.3887,-280.7542 1640.8888,-270.7542 1633.8888,-270.7542"/>
</g>
<!-- { provide: NG_VALIDATORS, useExisting: , multi: &#160;} -->
<g id="node16" class="node">
<title>{ provide: NG_VALIDATORS, useExisting: , multi: &#160;}</title>
<ellipse fill="#fdb462" stroke="#000000" cx="3502" cy="-104" rx="225.4746" ry="18"/>
<text text-anchor="middle" x="3502" y="-99.8" font-family="Times,serif" font-size="14.00" fill="#000000">{ provide: NG_VALIDATORS, useExisting: , multi: &#160;}</text>
</g>
<!-- { provide: NG_VALIDATORS, useExisting: , multi: &#160;}&#45;&gt;EqualValidator -->
<g id="edge2" class="edge">
<title>{ provide: NG_VALIDATORS, useExisting: , multi: &#160;}&#45;&gt;EqualValidator</title>
<path fill="none" stroke="#000000" d="M3676,-115.6207C3676,-115.6207 3676,-140.8534 3676,-140.8534"/>
<polygon fill="#000000" stroke="#000000" points="3672.5001,-140.8533 3676,-150.8534 3679.5001,-140.8534 3672.5001,-140.8533"/>
</g>
<!-- CommonModule -->
<g id="node17" class="node">
<title>CommonModule</title>
<polygon fill="#8dd3c7" stroke="#000000" points="1711.6681,-187 1708.6681,-191 1687.6681,-191 1684.6681,-187 1600.3319,-187 1600.3319,-151 1711.6681,-151 1711.6681,-187"/>
<text text-anchor="middle" x="1656" y="-164.8" font-family="Times,serif" font-size="14.00" fill="#000000">CommonModule</text>
</g>
<!-- CommonModule&#45;&gt;FwModule -->
<g id="edge16" class="edge">
<title>CommonModule&#45;&gt;FwModule</title>
<path fill="none" stroke="#000000" d="M1674.6113,-187.0511C1674.6113,-201.373 1674.6113,-219 1674.6113,-219 1674.6113,-219 1817.2696,-219 1817.2696,-219"/>
<polygon fill="#000000" stroke="#000000" points="1817.2697,-222.5001 1827.2696,-219 1817.2696,-215.5001 1817.2697,-222.5001"/>
</g>
<!-- RouterModule -->
<g id="node18" class="node">
<title>RouterModule</title>
<polygon fill="#8dd3c7" stroke="#000000" points="1581.6528,-187 1578.6528,-191 1557.6528,-191 1554.6528,-187 1484.3472,-187 1484.3472,-151 1581.6528,-151 1581.6528,-187"/>
<text text-anchor="middle" x="1533" y="-164.8" font-family="Times,serif" font-size="14.00" fill="#000000">RouterModule</text>
</g>
<!-- RouterModule&#45;&gt;FwModule -->
<g id="edge17" class="edge">
<title>RouterModule&#45;&gt;FwModule</title>
<path fill="none" stroke="#000000" d="M1570.4353,-187.2396C1570.4353,-202.5706 1570.4353,-222 1570.4353,-222 1570.4353,-222 1817.0561,-222 1817.0561,-222"/>
<polygon fill="#000000" stroke="#000000" points="1817.0562,-225.5001 1827.0561,-222 1817.0561,-218.5001 1817.0562,-225.5001"/>
</g>
<!-- FormsModule -->
<g id="node19" class="node">
<title>FormsModule</title>
<polygon fill="#8dd3c7" stroke="#000000" points="1466.8288,-187 1463.8288,-191 1442.8288,-191 1439.8288,-187 1371.1712,-187 1371.1712,-151 1466.8288,-151 1466.8288,-187"/>
<text text-anchor="middle" x="1419" y="-164.8" font-family="Times,serif" font-size="14.00" fill="#000000">FormsModule</text>
</g>
<!-- FormsModule&#45;&gt;FwModule -->
<g id="edge18" class="edge">
<title>FormsModule&#45;&gt;FwModule</title>
<path fill="none" stroke="#000000" d="M1419,-187.0091C1419,-203.0494 1419,-224 1419,-224 1419,-224 1817.1136,-224 1817.1136,-224"/>
<polygon fill="#000000" stroke="#000000" points="1817.1137,-227.5001 1827.1136,-224 1817.1136,-220.5001 1817.1137,-227.5001"/>
</g>
<!-- MdInputModule -->
<g id="node20" class="node">
<title>MdInputModule</title>
<polygon fill="#8dd3c7" stroke="#000000" points="1353.0465,-187 1350.0465,-191 1329.0465,-191 1326.0465,-187 1244.9535,-187 1244.9535,-151 1353.0465,-151 1353.0465,-187"/>
<text text-anchor="middle" x="1299" y="-164.8" font-family="Times,serif" font-size="14.00" fill="#000000">MdInputModule</text>
</g>
<!-- MdInputModule&#45;&gt;FwModule -->
<g id="edge19" class="edge">
<title>MdInputModule&#45;&gt;FwModule</title>
<path fill="none" stroke="#000000" d="M1299,-187.0336C1299,-204.0597 1299,-227 1299,-227 1299,-227 1817.0278,-227 1817.0278,-227"/>
<polygon fill="#000000" stroke="#000000" points="1817.0278,-230.5001 1827.0278,-227 1817.0278,-223.5001 1817.0278,-230.5001"/>
</g>
<!-- MdButtonModule -->
<g id="node21" class="node">
<title>MdButtonModule</title>
<polygon fill="#8dd3c7" stroke="#000000" points="1226.6123,-187 1223.6123,-191 1202.6123,-191 1199.6123,-187 1109.3877,-187 1109.3877,-151 1226.6123,-151 1226.6123,-187"/>
<text text-anchor="middle" x="1168" y="-164.8" font-family="Times,serif" font-size="14.00" fill="#000000">MdButtonModule</text>
</g>
<!-- MdButtonModule&#45;&gt;FwModule -->
<g id="edge20" class="edge">
<title>MdButtonModule&#45;&gt;FwModule</title>
<path fill="none" stroke="#000000" d="M1168,-187.002C1168,-204.6754 1168,-229 1168,-229 1168,-229 1817.2279,-229 1817.2279,-229"/>
<polygon fill="#000000" stroke="#000000" points="1817.2279,-232.5001 1827.2279,-229 1817.2279,-225.5001 1817.2279,-232.5001"/>
</g>
<!-- MdCheckboxModule -->
<g id="node22" class="node">
<title>MdCheckboxModule</title>
<polygon fill="#8dd3c7" stroke="#000000" points="1091.7604,-187 1088.7604,-191 1067.7604,-191 1064.7604,-187 956.2396,-187 956.2396,-151 1091.7604,-151 1091.7604,-187"/>
<text text-anchor="middle" x="1024" y="-164.8" font-family="Times,serif" font-size="14.00" fill="#000000">MdCheckboxModule</text>
</g>
<!-- MdCheckboxModule&#45;&gt;FwModule -->
<g id="edge21" class="edge">
<title>MdCheckboxModule&#45;&gt;FwModule</title>
<path fill="none" stroke="#000000" d="M1024,-187.2222C1024,-205.8285 1024,-232 1024,-232 1024,-232 1817.0773,-232 1817.0773,-232"/>
<polygon fill="#000000" stroke="#000000" points="1817.0773,-235.5001 1827.0773,-232 1817.0772,-228.5001 1817.0773,-235.5001"/>
</g>
<!-- MdTabsModule -->
<g id="node23" class="node">
<title>MdTabsModule</title>
<polygon fill="#8dd3c7" stroke="#000000" points="938.2064,-187 935.2064,-191 914.2064,-191 911.2064,-187 831.7936,-187 831.7936,-151 938.2064,-151 938.2064,-187"/>
<text text-anchor="middle" x="885" y="-164.8" font-family="Times,serif" font-size="14.00" fill="#000000">MdTabsModule</text>
</g>
<!-- MdTabsModule&#45;&gt;FwModule -->
<g id="edge22" class="edge">
<title>MdTabsModule&#45;&gt;FwModule</title>
<path fill="none" stroke="#000000" d="M885,-187.1061C885,-206.3391 885,-234 885,-234 885,-234 1817.2415,-234 1817.2415,-234"/>
<polygon fill="#000000" stroke="#000000" points="1817.2415,-237.5001 1827.2415,-234 1817.2415,-230.5001 1817.2415,-237.5001"/>
</g>
<!-- MdRadioModule -->
<g id="node24" class="node">
<title>MdRadioModule</title>
<polygon fill="#8dd3c7" stroke="#000000" points="814.437,-187 811.437,-191 790.437,-191 787.437,-187 701.563,-187 701.563,-151 814.437,-151 814.437,-187"/>
<text text-anchor="middle" x="758" y="-164.8" font-family="Times,serif" font-size="14.00" fill="#000000">MdRadioModule</text>
</g>
<!-- MdRadioModule&#45;&gt;FwModule -->
<g id="edge23" class="edge">
<title>MdRadioModule&#45;&gt;FwModule</title>
<path fill="none" stroke="#000000" d="M758,-187.2228C758,-207.3652 758,-237 758,-237 758,-237 1817.2154,-237 1817.2154,-237"/>
<polygon fill="#000000" stroke="#000000" points="1817.2154,-240.5001 1827.2154,-237 1817.2153,-233.5001 1817.2154,-240.5001"/>
</g>
<!-- FrameworkConfigService -->
<g id="node29" class="node">
<title>FrameworkConfigService</title>
<ellipse fill="#fdb462" stroke="#000000" cx="567" cy="-169" rx="111.1557" ry="18"/>
<text text-anchor="middle" x="567" y="-164.8" font-family="Times,serif" font-size="14.00" fill="#000000">FrameworkConfigService</text>
</g>
<!-- FrameworkConfigService&#45;&gt;FwModule -->
<g id="edge28" class="edge">
<title>FrameworkConfigService&#45;&gt;FwModule</title>
<path fill="none" stroke="#000000" d="M567,-187.2843C567,-208.3211 567,-240 567,-240 567,-240 1817.1235,-240 1817.1235,-240"/>
<polygon fill="#000000" stroke="#000000" points="1817.1235,-243.5001 1827.1235,-240 1817.1235,-236.5001 1817.1235,-243.5001"/>
</g>
<!-- ScreenService -->
<g id="node30" class="node">
<title>ScreenService</title>
<ellipse fill="#fdb462" stroke="#000000" cx="371" cy="-169" rx="66.0281" ry="18"/>
<text text-anchor="middle" x="371" y="-164.8" font-family="Times,serif" font-size="14.00" fill="#000000">ScreenService</text>
</g>
<!-- ScreenService&#45;&gt;FwModule -->
<g id="edge29" class="edge">
<title>ScreenService&#45;&gt;FwModule</title>
<path fill="none" stroke="#000000" d="M371,-187.0449C371,-208.6623 371,-242 371,-242 371,-242 1817.1625,-242 1817.1625,-242"/>
<polygon fill="#000000" stroke="#000000" points="1817.1625,-245.5001 1827.1625,-242 1817.1624,-238.5001 1817.1625,-245.5001"/>
</g>
<!-- MenuService -->
<g id="node31" class="node">
<title>MenuService</title>
<ellipse fill="#fdb462" stroke="#000000" cx="224" cy="-169" rx="62.5392" ry="18"/>
<text text-anchor="middle" x="224" y="-164.8" font-family="Times,serif" font-size="14.00" fill="#000000">MenuService</text>
</g>
<!-- MenuService&#45;&gt;FwModule -->
<g id="edge30" class="edge">
<title>MenuService&#45;&gt;FwModule</title>
<path fill="none" stroke="#000000" d="M224,-187.0109C224,-209.4852 224,-245 224,-245 224,-245 1817.0306,-245 1817.0306,-245"/>
<polygon fill="#000000" stroke="#000000" points="1817.0306,-248.5001 1827.0306,-245 1817.0305,-241.5001 1817.0306,-248.5001"/>
</g>
<!-- AlertService -->
<g id="node32" class="node">
<title>AlertService</title>
<ellipse fill="#fdb462" stroke="#000000" cx="84" cy="-169" rx="59.6646" ry="18"/>
<text text-anchor="middle" x="84" y="-164.8" font-family="Times,serif" font-size="14.00" fill="#000000">AlertService</text>
</g>
<!-- AlertService&#45;&gt;FwModule -->
<g id="edge31" class="edge">
<title>AlertService&#45;&gt;FwModule</title>
<path fill="none" stroke="#000000" d="M84,-187.0908C84,-210.1328 84,-247 84,-247 84,-247 1817.1231,-247 1817.1231,-247"/>
<polygon fill="#000000" stroke="#000000" points="1817.1232,-250.5001 1827.1231,-247 1817.1231,-243.5001 1817.1232,-250.5001"/>
</g>
</g>
</svg>
