<?xml version="1.0" encoding="utf-8"?>
<!-- Generator: Adobe Illustrator 19.0.0, SVG Export Plug-In . SVG Version: 6.00 Build 0)  -->
<svg version="1.1" id="Layer_1" xmlns="http://www.w3.org/2000/svg" xmlns:xlink="http://www.w3.org/1999/xlink" x="0px" y="0px"
	 viewBox="0 0 500 300" style="enable-background:new 0 0 500 300;" xml:space="preserve">
<style type="text/css">
	.st0{fill:#F7A14B;}
	.st1{fill:#73D8D0;}
	.st2{fill:#69CCC2;}
	.st3{fill:#FC675B;}
	.st4{fill:#FCC447;}
	.st5{fill:#4a0072;}
	.st6{fill:#A67C52;}
	.st7{fill:#966C47;}
	.st8{fill:#FFE981;}
	.st9{fill:#FFDB2D;}
	.st10{fill:#FF9900;}
	.st11{fill:#FFE257;}
	.st12{fill:#804D00;}
</style>
<path id="XMLID_30_" class="st0" d="M77.6,158.4c-1.2,0-2.2-1-2.2-2.2v-18.5c0-1.2,1-2.2,2.2-2.2s2.2,1,2.2,2.2v18.5
	C79.8,157.4,78.8,158.4,77.6,158.4z"/>
<path id="XMLID_29_" class="st1" d="M118.7,85.8c-0.9,3.4-2.6,6.3-4.8,8.6c-1.1,1.1-7,6-9.1,7.8c1.5,6,1.2,12.4-1.3,18.6
	c-6.2,15.5-23.4,23.1-39,17.1c-0.2-0.1-0.5-0.2-0.7-0.3c-10-4.1-20.5-6.6-31.2-7.4c-1-0.1-2.1-0.1-3.1-0.2l-1,0l-21.1-0.7l2.8-1.3
	c20.1-10.3,36.7-22.4,48.6-32.5c13-10.9,20.5-19.3,21.1-19.9c5.1-5.6,9.2-9.8,10.5-10.6c5.1-3.1,11.6-3.9,17.6-1.3
	c0.9,0.4,1.8,0.9,2.6,1.4C117.3,69.4,120.7,77.7,118.7,85.8z"/>
<path id="XMLID_28_" class="st2" d="M110.5,65.1c0,0-16.7-2.9-28.2,23.1c-4.5,10.1-13.8,10.5-23.6,7.2c13-10.9,20.5-19.3,21.1-19.9
	c5.1-5.6,9.2-9.8,10.5-10.6c5.1-3.1,11.6-3.9,17.6-1.3C108.8,64.1,109.6,64.6,110.5,65.1z"/>
<path id="XMLID_27_" class="st3" d="M104.9,102.7c1.3,5.8,1,12.1-1.4,18c-3.2,8.1-9.5,14-17,17c-0.9-2.7-1.3-5.6-1.3-8.5
	C85.2,116.7,93.5,106.1,104.9,102.7z"/>
<path id="XMLID_26_" class="st4" d="M115.8,92.3l15-5.1l-11.9-10.5l-0.4,0.5C115.2,81.6,114.2,87.2,115.8,92.3L115.8,92.3z"/>
<path id="XMLID_25_" class="st2" d="M63.8,137.5c-10-4.1-20.5-6.6-31.2-7.4l2.2-8.9l25.6,0C60.4,121.3,54.6,128.3,63.8,137.5z"/>
<path id="XMLID_24_" class="st4" d="M83.2,93.1c2,10.1-3.3,20.3-12.8,24.4c-0.1,0-0.1,0-0.2,0.1c-17,7.2-35.3,11.2-53.9,11.6
	l-8.9,0.2l2.8-1.3C52,106.5,78.7,76.8,79.8,75.5L83.2,93.1z"/>
<path id="XMLID_23_" class="st5" d="M82.3,88.2c-7.2,13.5-20.7,29.6-45.8,39c-2.8,1.1-5.5,2-8,2.7l-21.1-0.7l2.8-1.3
	C52,106.5,78.7,76.8,79.8,75.5L82.3,88.2z"/>
<circle id="XMLID_22_" class="st6" cx="102.4" cy="78.7" r="3.7"/>
<path id="XMLID_21_" class="st7" d="M100.6,78.7c0-1.7,1.2-3.1,2.7-3.5c-0.3-0.1-0.6-0.1-0.9-0.1c-2,0-3.7,1.6-3.7,3.7
	s1.6,3.7,3.7,3.7c0.3,0,0.6,0,0.9-0.1C101.7,81.8,100.6,80.4,100.6,78.7z"/>
<path id="XMLID_20_" class="st6" d="M81,150.4H63.4c2,1.3,4,2.8,5.8,4.4h12.4C81.2,153.4,80.9,151.9,81,150.4z"/>
<path id="XMLID_19_" class="st0" d="M74.5,158.2c-0.3,0-0.6-0.1-0.8-0.2c-1.1-0.5-1.6-1.7-1.2-2.9l1.5-3.6l-3.5-1.4
	c-1.1-0.5-1.6-1.7-1.2-2.8c0.5-1.1,1.7-1.6,2.8-1.2l5.5,2.3c0.5,0.2,1,0.6,1.2,1.2c0.2,0.5,0.2,1.1,0,1.7l-2.3,5.6
	C76.2,157.7,75.4,158.2,74.5,158.2z"/>
<path id="XMLID_18_" class="st5" d="M236.8,153h-6.4v2.7c0,7.3,6,13.3,13.3,13.3h4.8c1.3,3.7,4.9,6.4,9.1,6.4V169
	c-1.8,0-3.2-1.4-3.2-3.2c0-1.8,1.4-3.2,3.2-3.2v-6.4c-4.2,0-7.7,2.7-9.1,6.4h-4.8c-3.8,0-6.9-3.1-6.9-6.9V153L236.8,153z"/>
<path id="XMLID_17_" class="st8" d="M200.4,139.1c0,6.9,2.7,13.4,7.6,18.3c4.8,4.8,11.2,7.4,18,7.4c0.1,0,0.2,0,0.4,0
	c6.6-0.1,12.8-2.7,17.6-7.3c2.3-2.2,4.1-4.8,5.4-7.7c1.3-0.4,2.7-1,3.9-1.7c5.7-3.3,9-8.5,9.5-15.1c0.2-2.8-0.2-5.3-0.5-6.9
	c2.8-3.7,9.5-14,5.8-25.3l-1.3-4l-41.7,27.4h-20l-0.9,1.5C201.8,129.7,200.4,134.3,200.4,139.1z"/>
<path id="XMLID_16_" class="st9" d="M200.4,139.1c0,6.9,2.7,13.4,7.6,18.3c4.6,4.5,10.6,7.1,16.9,7.4v-40.6h-19.8l-0.9,1.5
	C201.8,129.7,200.4,134.3,200.4,139.1z"/>
<polygon id="XMLID_15_" class="st10" points="190.8,120.9 180.1,123.1 184.4,116.7 180.1,110.2 190.8,112.4 "/>
<path id="XMLID_14_" class="st11" d="M185.5,117.7c0,11.8,9.6,21.4,21.4,21.4c11.8,0,21.4-9.6,21.4-21.4s-9.6-21.4-21.4-21.4
	S185.5,105.9,185.5,117.7z"/>
<circle id="XMLID_13_" class="st12" cx="202.6" cy="115.6" r="3.2"/>
<g id="XMLID_32_">
	<path id="XMLID_54_" class="st5" d="M105.7,155.1c-0.2,1.5-0.5,2.7-1,3.5c-0.6,0.1-1,0.2-1,0.2c-1,0-2.3-0.1-3.7-0.2
		c-1.4-0.1-2.4-0.2-2.8-0.2c-0.4,0-0.7,0-0.8,0.1c-0.4-0.6-2.4-0.9-6-0.9l-7.5,0.4h-0.3c-0.3,0-0.5,0.1-0.8,0.3
		c-0.7,2.5-1.2,5.9-1.5,10.3c-0.3,4.4-0.4,7.8-0.4,10.4l0.3,5l-0.6,3.1c-0.2,1-0.3,2-0.3,3c0,1-0.1,2.1-0.1,3.4l0.5,9.5
		c0,1.1-0.1,1.8-0.4,1.9c0.3,0,0.5,0.9,0.8,2.5s0.5,2.9,0.8,3.7c0.2,0.8,0.4,1.4,0.4,1.5c0,0.4-0.8,0.9-2.4,1.5
		c0.1,0.1,0.1,0.2,0.1,0.4c0,0.2-0.1,0.4-0.3,0.4c-0.2,0-0.4-0.2-0.5-0.5c-0.6,0.5-1.1,0.8-1.6,1c-0.2-0.5-0.6-0.8-1.2-0.8
		c-0.3,0-0.7,0-1.3,0.1c-0.6,0.1-1,0.1-1.2,0.1h-0.4c0.6-0.3,0.8-1.4,0.7-3.3c-0.1-1-0.1-1.7-0.1-2.3c0,0,0-0.2,0.1-0.4
		c1-2.6,1.5-8.1,1.5-16.5l0.3-20.3c0-6.5-0.3-10.5-0.8-12.2c0.1-0.2,0.1-0.4,0.1-0.6c0-0.3-0.1-0.6-0.2-0.8c-0.1-0.2-0.4-0.3-1-0.4
		l-2.7-0.2c-1.2-0.1-2.1-0.2-2.6-0.2c-2.4,0-3.8,0.4-4.2,1.2c-0.5-0.3-1-0.4-1.5-0.4c-0.4,0-0.9,0.1-1.5,0.4
		c-0.6,0.3-1.4,0.4-2.4,0.4c-1.2,0-2.2-0.3-3-1c-0.1-0.2-0.1-0.4-0.1-0.7c0-0.4,0.1-1,0.4-1.8c0.3-0.8,0.4-1.4,0.4-1.9v-0.2
		c0.4-0.2,0.9-0.4,1.6-0.4c0.4,0,1.6,0.1,3.5,0.4c2,0.3,4.1,0.4,6.5,0.4h6.7c1.6,0,3.1-0.2,4.4-0.5l0.3-0.6c0.4,0.1,0.6,0.3,0.6,0.4
		l0.8-0.2c0.3,0,0.7,0.2,1.2,0.7c0.5,0.4,0.9,0.8,1.1,0.9c0.3,0,1-0.1,2-0.2c1-0.1,2-0.2,2.9-0.2l7.2-0.2l1.3,0.2h0.4
		c0.5,0,1.4-0.1,2.7-0.2c1.3-0.1,2.3-0.2,3.1-0.2C104.2,154,105.3,154.4,105.7,155.1z"/>
	<path id="XMLID_51_" class="st5" d="M117.5,214.5c0,0.2-0.6,0.5-1.9,1c-1.3,0.5-2.1,0.8-2.4,0.8h-0.3c-0.3,0-0.7,0.1-1.1,0.2
		c-0.5,0.1-0.8,0.2-1,0.2c-0.6,0-1.1-0.2-1.5-0.6c-0.4-0.4-0.7-0.7-0.7-1c0-0.6,0.1-1.6,0.4-2.9c0.2-1.3,0.6-2.3,1.1-2.9
		c0.2-1.9,0.4-5.3,0.4-10.4l-0.4-16.1l0.1-2.8c0-0.3-0.2-0.8-0.7-1.6c-0.5-0.8-0.7-1.8-0.7-2.9c0-0.7,0.2-1.2,0.6-1.4
		c0.4-0.3,1.2-0.7,2.6-1.3l2.5-1.1c0.1-0.1,0.3-0.1,0.5-0.1c0.7,0,1.1,1.2,1.1,3.5c0,1.3-0.2,4.7-0.7,10.1
		c-0.5,5.5-0.7,9.9-0.7,13.3c0,1.9,0.1,3.7,0.2,5.4c0.1,1.7,0.2,3,0.3,3.9s0.4,1.7,0.8,2.4c0.8,1.5,1.2,2.9,1.2,4.2
		C117.3,214.4,117.4,214.5,117.5,214.5z M115.4,158c0.5,0.4,1.2,0.8,2.3,1.3c1.1,0.5,1.6,1.1,1.6,1.8c0,0.7-0.4,1.3-1.2,2.1
		s-1.5,1.1-2.3,1.1c-0.9,0-1.8-0.5-2.7-1.5c-1-1-1.4-1.5-1.4-1.7c0-0.5,0.4-1.2,1.2-2s1.6-1.2,2.4-1.2H115.4z"/>
	<path id="XMLID_49_" class="st5" d="M151.8,176.3c1.9-0.3,3.5-0.5,4.8-0.5c8,0,12.1,5,12.1,15.1c0,5.6-0.9,12-2.7,19.4
		c-0.8,3.2-1.2,5.3-1.2,6.3c0,0.2,0.1,0.5,0.2,0.7c-0.4,1.8-1.4,2.7-3.2,2.7c-1.1,0-2-0.3-2.9-0.9c-0.9-0.6-1.3-1.2-1.3-1.9
		c0-1,0.6-2.2,1.9-3.6c1.2-1.4,2.4-4.3,3.4-8.5c1-4.2,1.6-8.4,1.6-12.7c0-8.7-3.6-13.1-10.7-13.1c-2.8,0-5.4,0.6-7.9,1.7
		c-2.5,1.2-3.9,2.4-4.2,3.8c-0.3,0.3-0.7,0.6-1.2,0.9c-0.5,0.2-0.7,0.5-0.8,0.6c-0.1,0.2-0.2,2.4-0.5,6.7c-0.2,4.3-0.4,7.5-0.4,9.8
		v2.1c0,1.1,0.2,2.1,0.6,3c0.4,0.9,0.6,1.4,0.6,1.6l-0.1,1.6c0,1-0.2,1.8-0.5,2.3c-0.3,0.6-0.8,0.9-1.3,0.9h-0.2l-0.3,0.6
		c-0.4-0.1-0.6-0.2-0.8-0.2c-0.4,0-0.9,0.2-1.6,0.7h-0.2c-0.3,0-0.8-0.4-1.5-1.2c-1,0-1.5-0.4-1.5-1.1c0-0.7,0.2-1.2,0.6-1.6
		c0.4,0,0.8-1.9,1.3-5.8c0.5-3.9,0.8-8.8,0.8-14.8c0-7.7-0.6-12.2-1.9-13.3l-0.1-0.8c0-1.1,0.7-1.9,2-2.3c0.5-0.1,1-0.5,1.4-1.2
		c0.4-0.7,0.9-1,1.4-1h0.1c0.6-0.1,1.1-0.2,1.5-0.4c0.4-0.2,0.7-0.3,0.7-0.3c0.4,0,0.6,0.6,0.6,1.7c0,0.9-0.2,1.9-0.5,3
		c-0.4,1.1-0.5,1.9-0.5,2.2c0,0.4,0.2,0.8,0.5,1.2s0.7,0.5,1.2,0.5h0.3c0.8-0.8,1.3-1.2,1.3-1.2h0.1c2.8,0,5-0.6,6.4-1.7
		c0.3,0,0.6-0.1,1-0.2c0.4-0.1,0.6-0.1,0.8-0.1C151.4,176.7,151.8,176.4,151.8,176.3z"/>
	<path id="XMLID_47_" class="st5" d="M215.1,174.9c0.4-0.3,0.8-0.4,1.2-0.4c0.4,0,1.3,0.1,2.4,0.4c1.2,0.3,1.8,0.7,1.8,1.3
		c0,0.8-0.5,1.6-1.6,2.3c-0.4,0-1.9,2.5-4.7,7.4l-7.3,13.3c-2.2,3.9-3.4,7.2-3.7,10.1c-0.3,2.2-0.9,3.7-2,4.5l-0.3,1.1
		c-0.5,0.1-0.9,0.4-1.2,0.9c-4.3,9.9-6.9,16-7.8,18.3c-0.9,2.3-1.5,4.1-1.5,5.4c-0.1,1.3-0.7,1.9-1.9,1.9h-0.5c-1-0.4-2.3-0.5-4-0.5
		l-0.3,0.1c-0.5,0-0.7-0.3-0.7-0.8c0-0.1,0.1-0.3,0.3-0.4c0-0.2,1.1-1.8,3.3-4.7c-0.3-0.1-0.4-0.3-0.4-0.5c0-0.4,0.7-1.6,2.1-3.7
		c3.5-5.2,6.3-10.3,8.6-15.2c-0.2-0.3-0.3-0.6-0.3-0.9c-0.2-0.1-0.4-0.2-0.8-0.2h-0.2c-0.6,0-1.1-0.8-1.3-2.3
		c-0.2-1.5-0.4-2.4-0.6-2.7c-1.3-2.3-2.7-5.1-4.1-8.4c-1.4-3.3-2.9-6.5-4.4-9.5c-1.5-3-2.6-5.3-3.2-6.9c-0.6-1.6-1.4-2.9-2.4-4.1
		c-1-1.1-1.4-2.1-1.4-2.9v-0.5c-0.1,0.1-0.3,0.1-0.5,0.1c-0.4,0-0.6-0.1-0.6-0.3s0.5-0.9,1.4-2.1s2-2.1,3.2-2.8
		c0.9,0.4,1.6,0.7,2,0.9c0.5,0.2,1,1.7,1.6,4.3l1,3.5v1.5c1.1,2.2,2.6,5.2,4.4,9.1l1.4,3c0.5,1,0.9,1.9,1.3,2.8
		c0.4,0.8,0.8,1.6,1.3,2.4c0.5,0.8,0.9,1.5,1.4,2.1c0.7,1,1.1,1.6,1.2,1.7c0.2,0.4,0.5,0.8,0.7,1.2c0.3,0.4,0.6,0.7,0.9,1
		c0.3,0.3,0.7,0.6,1.1,0.9l3.5-7.8c2.9-6.6,4.8-10.7,5.7-12.1c0.9-1.5,1.5-2.8,2-4.1c0.4-1.3,0.8-2.7,1.2-4.2c0.3-1.5,0.6-2.5,0.8-3
		c0.2-0.4,0.6-0.7,1.2-0.7L215.1,174.9z"/>
	<path id="XMLID_45_" class="st5" d="M334.9,157.8l-1.6,2.5h-0.1c-0.3,0-0.7,0.6-1.2,1.7c-0.5,1.2-1.1,2.9-1.8,5.1
		c-0.7,2.3-1.5,5.1-2.4,8.6l-3.7,15.7c-1.6,7.1-2.4,10.9-2.4,11.4l0.3,3.1c0,0.9-0.5,2.6-1.5,5.2c-1,2.6-2,3.9-2.9,3.9
		c-0.4,0-0.7-0.1-1-0.4c0.1-0.4,0.1-0.8,0.1-1.2c0-0.4-0.8-1.7-2.3-3.9c-1.5-2.3-3-4.9-4.5-7.8c-1.5-2.9-3.2-5.9-5.2-9.1
		c-1.9-3.2-3.9-6.7-6-10.7s-4.3-9-6.7-15.1c-0.3-0.6-0.6-0.8-1-0.8c-0.3,0-0.7,0.1-1,0.3c-0.3,0.2-0.6,0.5-0.9,0.9
		c-0.4,0.5-0.7,0.9-0.9,1.4c-0.4,0.7-1,1.8-1.9,3.6L273,201.2c-1.8,4-3.3,6.7-4.4,8.1c-0.2,2.2-0.8,3.8-1.6,5
		c-0.8,1.2-1.8,1.7-2.9,1.7c-1.2,0-1.9-0.4-2.1-1.2s-0.4-2.9-0.5-6.3c-2.1-16.2-5.2-31.7-9.2-46.6c-0.7-2.5-1-3.8-1-4.1
		c0-1.2,0.5-2.1,1.5-2.7c1-0.7,1.9-1,2.6-1c1.7,0,2.5,1.1,2.5,3.3l0,1.7c0,5.3,1.2,13,3.5,23.2c2.3,10.2,3.5,15.9,3.5,17.4
		c0,1.4,0.7,2.7,2.3,3.8c1.3-0.9,1.9-1.6,1.9-2.2v-0.1c0-0.5,1.1-3,3.3-7.5l8.4-17.2c3.4-7,5.5-11.3,6.5-12.9c1-1.7,1.4-2.6,1.4-2.6
		l-0.1-1.2c0.5-0.9,0.7-1.5,0.7-1.8c0.4-0.2,0.5-0.4,0.5-0.7v-0.9c1.6-1.3,2.5-2,2.7-2c0.2,0,0.5,0.1,0.9,0.4
		c-0.1,0.6-0.2,1-0.2,1.3c0,0.1,0.1,0.3,0.2,0.6c0.1,0.1,0.2,0.2,0.4,0.3l0.4,0.5c0.3,0.3,0.6,0.9,0.8,1.7c0.9,3,1.9,5.9,3,8.9
		c1.1,2.9,2.4,5.8,3.8,8.7c1.4,2.9,2.9,5.7,4.5,8.6c1.6,2.8,3.3,5.6,5.2,8.3c1.9,2.7,3.8,5.3,5.8,7.8c1.5-0.1,3.8-9,6.8-26.6
		c0-1.4,0.3-3.6,0.9-6.6c0.6-2.9,1-5.6,1.3-8c0.3-2.4,0.7-3.8,1-4.2c1.3-0.3,2.5-0.4,3.5-0.4c1,0,2.2,0.1,3.5,0.4
		c-0.1,0.2-0.2,0.4-0.2,0.7C334.5,157.3,334.6,157.6,334.9,157.8z"/>
	<path id="XMLID_42_" class="st5" d="M351.8,214.5c0,0.2-0.6,0.5-1.9,1c-1.3,0.5-2.1,0.8-2.4,0.8h-0.3c-0.3,0-0.7,0.1-1.1,0.2
		c-0.5,0.1-0.8,0.2-1,0.2c-0.6,0-1.1-0.2-1.5-0.6c-0.4-0.4-0.7-0.7-0.7-1c0-0.6,0.1-1.6,0.4-2.9s0.6-2.3,1.1-2.9
		c0.2-1.9,0.4-5.3,0.4-10.4l-0.4-16.1l0.1-2.8c0-0.3-0.2-0.8-0.7-1.6c-0.5-0.8-0.7-1.8-0.7-2.9c0-0.7,0.2-1.2,0.6-1.4
		c0.4-0.3,1.2-0.7,2.6-1.3l2.5-1.1c0.1-0.1,0.3-0.1,0.5-0.1c0.7,0,1.1,1.2,1.1,3.5c0,1.3-0.2,4.7-0.7,10.1
		c-0.5,5.5-0.7,9.9-0.7,13.3c0,1.9,0.1,3.7,0.2,5.4c0.1,1.7,0.2,3,0.3,3.9s0.4,1.7,0.8,2.4c0.8,1.5,1.2,2.9,1.2,4.2
		C351.6,214.4,351.7,214.5,351.8,214.5z M349.7,158c0.5,0.4,1.2,0.8,2.3,1.3s1.6,1.1,1.6,1.8c0,0.7-0.4,1.3-1.2,2.1
		c-0.8,0.7-1.5,1.1-2.3,1.1c-0.9,0-1.8-0.5-2.7-1.5c-1-1-1.4-1.5-1.4-1.7c0-0.5,0.4-1.2,1.2-2s1.6-1.2,2.4-1.2H349.7z"/>
	<path id="XMLID_38_" class="st5" d="M386.1,176.3c1.9-0.3,3.5-0.5,4.8-0.5c8,0,12.1,5,12.1,15.1c0,5.6-0.9,12-2.7,19.4
		c-0.8,3.2-1.2,5.3-1.2,6.3c0,0.2,0.1,0.5,0.2,0.7c-0.4,1.8-1.4,2.7-3.2,2.7c-1.1,0-2-0.3-2.9-0.9c-0.9-0.6-1.3-1.2-1.3-1.9
		c0-1,0.6-2.2,1.9-3.6c1.2-1.4,2.4-4.3,3.4-8.5c1-4.2,1.6-8.4,1.6-12.7c0-8.7-3.6-13.1-10.7-13.1c-2.8,0-5.4,0.6-7.9,1.7
		c-2.5,1.2-3.9,2.4-4.2,3.8c-0.3,0.3-0.7,0.6-1.2,0.9c-0.5,0.2-0.7,0.5-0.8,0.6s-0.2,2.4-0.5,6.7c-0.2,4.3-0.4,7.5-0.4,9.8v2.1
		c0,1.1,0.2,2.1,0.6,3c0.4,0.9,0.6,1.4,0.6,1.6l-0.1,1.6c0,1-0.2,1.8-0.5,2.3c-0.3,0.6-0.8,0.9-1.3,0.9h-0.2l-0.3,0.6
		c-0.4-0.1-0.6-0.2-0.8-0.2c-0.4,0-0.9,0.2-1.6,0.7H369c-0.3,0-0.8-0.4-1.5-1.2c-1,0-1.5-0.4-1.5-1.1c0-0.7,0.2-1.2,0.6-1.6
		c0.4,0,0.8-1.9,1.3-5.8c0.5-3.9,0.8-8.8,0.8-14.8c0-7.7-0.6-12.2-1.9-13.3l-0.1-0.8c0-1.1,0.7-1.9,2-2.3c0.5-0.1,1-0.5,1.4-1.2
		s0.9-1,1.4-1h0.1c0.6-0.1,1.1-0.2,1.5-0.4c0.4-0.2,0.7-0.3,0.7-0.3c0.4,0,0.6,0.6,0.6,1.7c0,0.9-0.2,1.9-0.5,3s-0.5,1.9-0.5,2.2
		c0,0.4,0.2,0.8,0.5,1.2s0.7,0.5,1.2,0.5h0.3c0.8-0.8,1.3-1.2,1.3-1.2h0.1c2.8,0,5-0.6,6.4-1.7c0.3,0,0.6-0.1,1-0.2
		c0.4-0.1,0.6-0.1,0.8-0.1C385.7,176.7,386,176.4,386.1,176.3z"/>
	<path id="XMLID_35_" class="st5" d="M449.2,171.3c-0.7,3.2-1,8.4-1,15.7c0,2.4,0.1,6.1,0.4,11.1c0.3,5.1,0.4,9.5,0.4,13.4
		c0,7.4-0.7,13.3-2.2,17.7c-1.4,4.4-2.6,6.6-3.5,6.6l-0.3-0.1c-0.8,2.2-2.7,3.7-5.8,4.4c-3.1,0.8-5.3,1.1-6.7,1.1
		c-0.6,0-1.5-0.1-2.7-0.3c-1.2-0.2-2-0.3-2.5-0.3c-0.6,0-1,0-1.3,0.1c-0.4,0.4-0.9,0.6-1.3,0.6c-0.4,0-0.6-0.1-0.8-0.4
		c-0.3,0.4-0.7,0.5-1.4,0.5l-0.8-0.1c-0.1,0-0.3,0-0.6,0.1c-0.3,0.1-0.5,0.1-0.6,0.1c-0.3,0-0.7-0.2-1.1-0.6s-0.6-1-0.6-1.9
		c0-0.5,0.1-1.1,0.2-1.9c0.1-0.7,0.2-1.2,0.2-1.5v-1c0-0.4,0.2-0.8,0.6-1.3h0.4c0.6,0,1.6,0.4,2.9,1.2c3.2,1.9,6.4,2.8,9.7,2.8
		c2.6,0,4.6-0.5,6.1-1.6c1.8-0.1,2.8-0.7,2.9-1.8c0.5-0.2,1.4-1.7,2.6-4.5s1.9-7.1,1.9-12.8v-1.3c-0.4-0.8-1.2-1.2-2.4-1.2
		c-0.6,0-1.3,0.1-2.2,0.3c-0.9,0.2-1.7,0.3-2.4,0.3c-1.3,0-3.1-0.2-5.6-0.5s-4.4-0.7-5.8-1c-1.4-0.4-3.1-1.2-5.1-2.4
		c-2-1.2-3.5-2.4-4.3-3.7c-0.9-1.2-1.6-2.7-2.1-4.3s-0.8-3.4-0.8-5.1c0-3.4,0.9-6.6,2.8-9.6s4.5-5.5,8-7.7c0.3-0.1,0.6-0.3,0.8-0.7
		c0.6-1,2.9-2,6.9-2.8l5.2-1.4h0.1c0.4,0,2.2-0.6,5.4-1.8l0.6,0.8c0.2-0.5,0.3-1.5,0.3-3v-2h0.8
		C447.1,169.7,448.7,170.3,449.2,171.3z M440.7,208.4c0.1,0.4,0.4,0.5,0.9,0.5c1.7,0,2.5-1.9,2.5-5.8l-0.8-20.4l0.2-1.5
		c0-2-1.4-3.1-4.2-3.1c-2.1,0-4.6,0.4-7.5,1.2c-2.9,0.8-5.5,2.3-7.9,4.5c-2.3,2.2-3.9,4.3-4.7,6.4c-0.8,2.1-1.2,4.1-1.2,6.1
		c0,2.7,0.9,5,2.6,7.1s3.9,3.7,6.4,4.9s6.2,1.8,11,1.8c0.3,0,0.7-0.1,1-0.2S440,209.4,440.7,208.4z"/>
	<path id="XMLID_33_" class="st5" d="M480.6,192.1c2.3,2.1,3.5,4.6,3.5,7.5c0,3.8-1.2,7.2-3.5,10.2s-5.3,4.9-9,5.5
		c-0.8,0-1.9,0.1-3.4,0.2c-1.1,0.4-2.2,0.7-3.5,0.7c-1.6,0-2.9-0.3-3.8-1c-0.9-0.7-1.4-1.9-1.4-3.9c0-0.6,0-1,0.1-1.3h0.4
		c0.6,0,1.2,0.2,1.7,0.5c0.5,0.3,0.9,0.5,1,0.5l0.3-0.1c1,1,2.7,1.5,5.1,1.5c2.3,0,4.3-0.4,6.2-1.2c1.9-0.8,3.2-2.2,4.1-4.1
		c0.9-1.9,1.4-3.6,1.4-5.1c0-2.2-0.8-4-2.5-5.5c-1.7-1.4-5.4-3.1-11.3-4.9c-0.9-0.1-1.5-0.3-1.7-0.6l-2-1.8
		c-1.1-0.9-1.8-1.8-2.1-2.7l-0.4-1.4c0-4.7,1.4-8,4.1-10c2.7-2,7.4-2.9,14-2.9l2.5,0.1c0.1,0,0.4-0.1,0.9-0.2c0.5,0.5,0.7,1.1,0.7,2
		c0,1-0.2,1.9-0.5,2.8c-0.3,0.9-0.7,1.4-1,1.5c-0.3-0.5-0.6-0.9-0.9-1.2h-0.1c-0.1,0-0.2,0.1-0.4,0.2c-0.2,0.1-0.3,0.2-0.4,0.2
		c-1.4-1.6-3.1-2.4-5.2-2.4c-4,0-6.6,0.8-7.9,2.3c-1.3,1.5-1.9,3.2-1.9,5.1c0,2.7,2.1,4.5,6.4,5.5c3.1,0.8,5.7,1.6,7.7,2.4
		C479.6,191.3,480.6,191.8,480.6,192.1z"/>
</g>
</svg>
